<svg width="92" height="86" viewBox="0 0 92 86" fill="none" xmlns="http://www.w3.org/2000/svg">
<path d="M58.2134 2.88946L55.7311 8.29981C55.3607 9.10714 54.7664 9.79121 54.0187 10.2708C53.271 10.7503 52.4014 11.0053 51.5132 11.0053H8.9956C6.43271 11.0053 4.35498 13.083 4.35498 15.6459V64.3172C4.35498 66.8801 6.43271 68.9578 8.9956 68.9578H87.0423C89.6052 68.9578 91.6829 66.8801 91.6829 64.3172V4.82462C91.6829 2.26172 89.6052 0.18399 87.0423 0.18399H62.4313C61.5431 0.183999 60.6735 0.438923 59.9258 0.918492C59.1781 1.39806 58.5838 2.08213 58.2134 2.88946Z" fill="#948E8C"/>
<path d="M87.4642 72.0816V34.2918C87.4642 31.7289 85.3864 29.6512 82.8235 29.6512H40.3058C39.4175 29.6512 38.5479 29.3962 37.8002 28.9167C37.0526 28.4371 36.4582 27.753 36.0878 26.9457L33.6056 21.5353C33.2351 20.728 32.6408 20.0439 31.8931 19.5644C31.1455 19.0848 30.2759 18.8299 29.3876 18.8299H4.77685C2.21396 18.8299 0.13623 20.9076 0.13623 23.4705V81.0086C0.13623 83.5715 2.21396 85.6492 4.77685 85.6492H82.8235C83.094 85.6492 83.3589 85.6248 83.6167 85.5803C83.9368 85.6246 84.2632 85.6492 84.5956 85.6492C88.5097 85.6492 91.6825 82.4764 91.6825 78.5623C91.6825 75.6693 89.9485 73.183 87.4642 72.0816Z" fill="#566885"/>
<path d="M87.4644 56.9805V77.7557H87.4728C87.4728 78.9182 88.4151 79.8605 89.5776 79.8605C90.7401 79.8605 91.6825 78.9182 91.6825 77.7557V56.9805H87.4644Z" fill="#948E8C"/>
</svg>
